<svg data-name="Layer 1" xmlns="http://www.w3.org/2000/svg" width="1029.6" height="548.7"
    viewBox="0 0 1029.56255 548.69495" xmlns:xlink="http://www.w3.org/1999/xlink">
    <path
        d="M 133.4 722.8 l 0.2 -1.1 c 0 -0.2 4.9 -24.9 23.1 -39.2 c 18.2 -14.3 43.3 -13.2 43.6 -13.2 l 1.1 0.1 l -0.2 1.1 c 0 0.2 -4.9 24.9 -23.1 39.2 c -18.2 14.3 -43.3 13.2 -43.6 13.2 Z M 157.9 684 c -15.4 12.1 -21 31.9 -22.1 36.9 c 5.1 0 25.7 -0.7 41.1 -12.8 c 15.4 -12.1 20.9 -31.9 22.1 -36.9 C 193.9 671.2 173.3 671.9 157.9 684 Z"
        transform="translate(-85.2,-175.7)" fill="#f1f1f1" />
    <path
        d="M 165.2 689.5 c -8.3 21.5 -30.3 33 -30.3 33 s -8.4 -23.3 -0.1 -44.8 S 165.1 644.7 165.1 644.7 S 173.5 668 165.2 689.5 Z"
        transform="translate(-85.2,-175.7)" fill="#f1f1f1" />
    <path
        d="M 1084.6 722.8 c -0.3 0 -25.4 1.1 -43.6 -13.2 c -18.2 -14.3 -23.1 -39 -23.1 -39.2 l -0.2 -1.1 l 1.1 -0.1 c 0.3 0 25.4 -1.1 43.6 13.2 c 18.2 14.3 23.1 39 23.1 39.2 l 0.2 1.1 Z m -64.5 -51.6 c 1.2 5 6.8 24.8 22.1 36.9 c 15.4 12.1 35.9 12.8 41.1 12.8 c -1.2 -5 -6.7 -24.8 -22.1 -36.9 C 1045.7 671.9 1025.2 671.2 1020.1 671.2 Z"
        transform="translate(-85.2,-175.7)" fill="#f1f1f1" />
    <path
        d="M 1053.9 689.5 c 8.3 21.5 30.3 33 30.3 33 s 8.4 -23.3 0.1 -44.8 s -30.3 -33 -30.3 -33 S 1045.5 668 1053.9 689.5 Z"
        transform="matrix(1,0,0,1,-85.2,-175.7)" fill="#f1f1f1" />
    <path
        d="M 675.3 717.6 l -14.6 -6.1 l -10 -73.2 H 517.4 L 506.6 711.2 l -13.1 6.5 a 3.1 3.1 0 0 0 1.4 5.9 H 674.1 A 3.1 3.1 0 0 0 675.3 717.6 Z"
        transform="translate(-85.2,-175.7)" fill="#e6e6e6" />
    <path
        d="M 912.2 648.1 H 257.4 a 13 13 0 0 1 -12.9 -13 V 542.8 h 680.7 v 92.3 A 13 13 0 0 1 912.2 648.1 Z"
        transform="translate(-85.2,-175.7)" fill="#cccccc" />
    <path
        d="M 925.8 586.4 h -682 V 191.3 a 15.7 15.7 0 0 1 15.6 -15.6 H 910.2 A 15.7 15.7 0 0 1 925.8 191.3 Z"
        transform="translate(-85.2,-175.7)" fill="#3f3d56" />
    <path
        d="M 880.1 565.7 H 279.6 C 272.9 565.7 267.5 560.3 267.5 553.7 v -329.3 C 267.5 217.7 272.9 212.3 279.6 212.3 H 880.1 C 886.8 212.3 892.2 217.7 892.2 224.4 v 329.3 C 892.2 560.3 886.8 565.7 880.1 565.7 Z"
        transform="matrix(1,0,0,1,-85.2,-175.7)" fill="#ffffff" />
    <path
        d="M 1113.3 724.3 l -1026.4 0 a 1.6 1.6 0 0 1 -1.5 -1.1 a 1.5 1.5 0 0 1 1.5 -1.9 l 1026.4 0 a 1.6 1.6 0 0 1 1.6 1.2 A 1.5 1.5 0 0 1 1113.3 724.3 Z"
        transform="translate(-85.2,-175.7)" fill="#cccccc" />
    <rect x="219.6" y="153.2" width="98.8" height="9.3" fill="#e5e5e5" />
    <rect x="219.6" y="175.7" width="98.8" height="9.3" fill="#e5e5e5" />
    <rect x="219.6" y="198.7" width="98.8" height="9.3" fill="#e5e5e5" />
    <rect x="219.6" y="221.7" width="98.8" height="9.3" fill="#e5e5e5" />
    <rect x="243" y="250.9" width="52" height="8.1" fill="#6c63ff" />
    <rect x="471.2" y="210.8" width="0.9" height="2.8" fill="#e5e5e5" />
    <path
        d="M 557.4 449.6 h -0.9 V 443.6 h 0.9 Z m 0 -12.1 h -0.9 v -6 h 0.9 Z m 0 -12.1 h -0.9 v -6 h 0.9 Z m 0 -12.1 h -0.9 v -6 h 0.9 Z m 0 -12.1 h -0.9 v -6 h 0.9 Z"
        transform="translate(-85.2,-175.7)" fill="#e5e5e5" />
    <rect x="471.2" y="280" width="0.9" height="2.8" fill="#e5e5e5" />
    <rect x="574.6" y="210.8" width="0.9" height="2.8" fill="#e5e5e5" />
    <path
        d="M 660.8 449.6 h -0.9 V 443.6 h 0.9 Z m 0 -12.1 h -0.9 v -6 h 0.9 Z m 0 -12.1 h -0.9 v -6 h 0.9 Z m 0 -12.1 h -0.9 v -6 h 0.9 Z m 0 -12.1 h -0.9 v -6 h 0.9 Z"
        transform="translate(-85.2,-175.7)" fill="#e5e5e5" />
    <rect x="574.6" y="280" width="0.9" height="2.8" fill="#e5e5e5" />
    <rect x="626.8" y="155.3" width="0.9" height="2.8" fill="#e5e5e5" />
    <path
        d="M 713 449.9 h -0.9 V 444.1 h 0.9 Z m 0 -11.6 h -0.9 V 432.5 h 0.9 Z m 0 -11.6 h -0.9 V 420.8 h 0.9 Z m 0 -11.6 h -0.9 V 409.2 h 0.9 Z m 0 -11.6 h -0.9 v -5.8 h 0.9 Z m 0 -11.6 h -0.9 v -5.8 h 0.9 Z m 0 -11.6 h -0.9 v -5.8 h 0.9 Z m 0 -11.6 h -0.9 v -5.8 h 0.9 Z m 0 -11.6 h -0.9 v -5.8 h 0.9 Z m 0 -11.6 h -0.9 v -5.8 h 0.9 Z"
        transform="translate(-85.2,-175.7)" fill="#e5e5e5" />
    <rect x="626.8" y="280" width="0.9" height="2.8" fill="#e5e5e5" />
    <rect x="678.5" y="132.6" width="0.9" height="2.8" fill="#e5e5e5" />
    <path
        d="M 764.7 449.9 h -0.9 v -5.8 h 0.9 Z m 0 -11.6 h -0.9 V 432.5 h 0.9 Z m 0 -11.6 h -0.9 v -5.8 h 0.9 Z m 0 -11.6 h -0.9 v -5.8 h 0.9 Z m 0 -11.6 h -0.9 v -5.8 h 0.9 Z m 0 -11.6 h -0.9 v -5.8 h 0.9 Z m 0 -11.6 h -0.9 v -5.8 h 0.9 Z m 0 -11.6 h -0.9 V 363.2 h 0.9 Z m 0 -11.6 h -0.9 v -5.8 h 0.9 Z m 0 -11.6 h -0.9 v -5.8 h 0.9 Z m 0 -11.6 h -0.9 v -5.8 h 0.9 Z m 0 -11.6 h -0.9 v -5.8 h 0.9 Z"
        transform="translate(-85.2,-175.7)" fill="#e5e5e5" />
    <rect x="678.5" y="280" width="0.9" height="2.8" fill="#e5e5e5" />
    <rect x="523.2" y="172.8" width="0.9" height="2.8" fill="#e5e5e5" />
    <path
        d="M 609.3 450.2 h -0.9 V 444.7 h 0.9 Z m 0 -11 h -0.9 v -5.5 h 0.9 Z m 0 -11 h -0.9 v -5.5 h 0.9 Z m 0 -11 h -0.9 v -5.5 h 0.9 Z m 0 -11 h -0.9 v -5.5 h 0.9 Z m 0 -11 h -0.9 v -5.5 h 0.9 Z m 0 -11 h -0.9 V 378.7 h 0.9 Z m 0 -11 h -0.9 v -5.5 h 0.9 Z m 0 -11 h -0.9 v -5.5 h 0.9 Z"
        transform="translate(-85.2,-175.7)" fill="#e5e5e5" />
    <rect x="523.2" y="280" width="0.9" height="2.8" fill="#e5e5e5" />
    <path
        d="M 817.1 459.8 H 504.3 a 1 1 0 0 1 -1 -1 v -149.9 a 1 1 0 0 1 2 0 V 457.9 H 817.1 a 1 1 0 1 1 0 2 Z"
        transform="translate(-85.2,-175.7)" fill="#3f3d56" />
    <polygon
        points="575.5,212.1 523.5,173.1 472.3,211.5 471.1,210 523.5,170.7 575.3,209.4 626.7,153.2 626.9,153.1 678.8,132.2 679.5,134 627.9,154.8 575.5,212.1"
        fill="#3f3d56" />
    <ellipse rx="6.4" ry="5.9" cx="471.2" cy="210.8" fill="#6c63ff" />
    <circle cx="523.5" cy="172.6" r="5.9" fill="#6c63ff" />
    <circle cx="575.4" cy="210.8" r="5.9" fill="#6c63ff" />
    <circle cx="627.3" cy="154" r="5.9" fill="#6c63ff" />
    <circle cx="679.2" cy="132.4" r="5.9" fill="#6c63ff" />
    <rect x="347.3" y="28.7" width="2" height="353.4" fill="#e5e5e5" />
    <path
        d="M 906 554.1 a 7.3 7.3 0 0 0 -2 -11.1 l 4.9 -25.6 l -12.5 5.2 L 893.7 546.1 a 7.4 7.4 0 0 0 12.3 8 Z"
        transform="translate(-85.2,-175.7)" fill="#ffb7b7" />
    <polygon points="883.2,535.8 872.6,535.8 867.6,494.9 883.2,494.9 883.2,535.8"
        fill="#ffb7b7" />
    <path
        d="M 971.1 721.7 l -34.2 0 v -0.4 a 13.3 13.3 0 0 1 13.3 -13.3 h 0 l 20.9 0 Z"
        transform="translate(-85.2,-175.7)" fill="#2f2e41" />
    <polygon points="825.3,535.8 814.7,535.8 809.6,494.9 825.3,494.9 825.3,535.8"
        fill="#ffb7b7" />
    <path
        d="M 910.6 721.7 l -34.2 0 v -0.4 a 13.3 13.3 0 0 1 13.3 -13.3 h 0 l 20.9 0 Z"
        transform="translate(-85.2,-175.7)" fill="#2f2e41" />
    <polygon
        points="824.4,363.1 814,387 805.5,524.4 827.1,523.5 833,458 851.2,399.7 861.7,464.7 866,521.8 883.9,522.6 891,363.1 824.4,363.1"
        fill="#2f2e41" />
    <path
        d="M 961.5 420.8 l -30.1 0.8 l -17.7 9.1 l -1 66.9 l -11 46.2 s 68.8 4.7 78.3 -2.2 L 968.8 488.7 L 983.9 431.7 Z"
        transform="matrix(1,0,0,1,-85.2,-175.7)" fill="rgb(98, 91, 213)" />
    <path
        d="M 917 431.6 l -3.2 -1 s -10.2 6.5 -9.2 22.4 c 0 0 -0.4 8.2 0 13.6 c 0.4 6.2 -12.1 68.3 -12.1 68.3 h 18.2 l 7.8 -56.2 Z"
        transform="translate(-85.2,-175.7)" fill="#6c63ff" />
    <path
        d="M 983.5 555 a 7.3 7.3 0 0 1 2 -11.1 l -4.9 -25.6 l 12.5 5.2 l 2.7 23.6 a 7.4 7.4 0 0 1 -12.3 8 Z"
        transform="translate(-85.2,-175.7)" fill="#ffb7b7" />
    <path
        d="M 979.4 432.5 l 3.2 -1 s 10.2 6.5 9.2 22.4 c 0 0 0.4 8.2 0 13.6 c -0.4 6.2 5.2 68.3 5.2 68.3 H 978.9 l -7.8 -56.2 Z"
        transform="translate(-85.2,-175.7)" fill="#6c63ff" />
    <path
        d="M 968.9 392.7 a 20.8 20.8 0 1 1 -20.8 -20.8 h 0 a 20.8 20.8 0 0 1 20.8 20.7 Q 968.9 392.7 968.9 392.7 Z"
        transform="matrix(1,0,0,1,-85.2,-175.7)" fill="#ffb7b7" />
    <path
        d="M 927.2 364.7 c 2.4 -5.3 7.2 -4.2 11.3 -2.4 c 5.2 -1.2 10.2 -4.6 15.9 -2.6 c 5.6 8.1 24.2 5.7 20.2 18.9 c 0 3.2 5.9 1.3 4.9 6.5 c 3.1 9.9 -11.4 28.8 -19.7 24.8 c 2.1 -3.8 6.8 -12.3 -0.4 -13.2 c -15.3 14.3 -1.6 -27.2 -20.9 -15.1 C 932.2 387.3 923.5 370.5 927.2 364.7 Z"
        transform="translate(-85.2,-175.7)" fill="#2f2e41" />
    <radialGradient id="cznt9f0h"/>
</svg>